# xmcd
#
# Track frame offsets:
#	150
#	17258
#	28338
#	39731
#	51326
#	64273
#	79316
#	93589
#	106771
#	119189
#
# Disc length: 1742 seconds
#
# Revision: 1
# Processed by: cddbd v1.5.2PL0 Copyright (c) Steve Scherf et al.
# Submitted via: audiograbber 1.83.01
#
DISCID=8906cc0a
DTITLE=Charley Pride - Did You Think To Pray
DYEAR=1900
DGENRE=Country
TTITLE0=Did You Think To Pray
TTITLE1=I'll Fly Away
TTITLE2=Time Out For Jesus
TTITLE3=Angel Band
TTITLE4=Jesus, Don't Give Up On Me
TTITLE5=Let Me Live
TTITLE6=Whispering Hope
TTITLE7=This Highway Leads To Glory
TTITLE8=The Church In The Wildwood
TTITLE9=Lord, Build Me A Cabin In Glor
EXTD=
EXTT0=
EXTT1=
EXTT2=
EXTT3=
EXTT4=
EXTT5=
EXTT6=
EXTT7=
EXTT8=
EXTT9=
PLAYORDER=
